<svg width="25" height="22" viewBox="0 0 25 22" fill="none" xmlns="http://www.w3.org/2000/svg">
<path d="M1.32747 11.3984C0.634109 11.3984 0.204422 10.9297 0.204422 10.3438C0.204422 10.041 0.350906 9.70898 0.643875 9.47461L10.8197 0.929688C11.2884 0.539062 11.806 0.34375 12.3333 0.34375C12.8509 0.34375 13.3783 0.539062 13.8372 0.929688L18.4075 4.75781V3.15625C18.4075 2.7168 18.7005 2.42383 19.1497 2.42383H20.6732C21.1126 2.42383 21.4056 2.7168 21.4056 3.15625V7.27734L24.0228 9.47461C24.306 9.70898 24.4525 10.041 24.4525 10.3438C24.4525 10.9297 24.0228 11.3984 23.3294 11.3984C23.0072 11.3984 22.7044 11.2324 22.4408 11.0078L21.4056 10.1387V19.1621C21.4056 20.6562 20.4876 21.5547 18.9349 21.5547H5.722C4.16927 21.5547 3.26106 20.6562 3.26106 19.1621V10.1387L2.21614 11.0078C1.95247 11.2324 1.64973 11.3984 1.32747 11.3984ZM15.1458 13.752V19.377H18.3001C18.8958 19.377 19.2279 19.0449 19.2279 18.4395V8.3125L12.8021 2.92188C12.6458 2.79492 12.4896 2.72656 12.3333 2.72656C12.1771 2.72656 12.0111 2.79492 11.8646 2.92188L5.4388 8.3125V18.4395C5.4388 19.0449 5.76106 19.377 6.35677 19.377H9.52083V13.752C9.52083 13.293 9.82356 13 10.2825 13H14.3841C14.8431 13 15.1458 13.293 15.1458 13.752Z" fill="#11AF59"/>
</svg>
