<svg width="22" height="22" viewBox="0 0 22 22" fill="none" xmlns="http://www.w3.org/2000/svg">
<path d="M9.68033 21.5449C8.86002 21.5449 8.22525 21.0469 8.04947 20.2754L7.64908 18.5469L7.38541 18.4492L5.8815 19.377C5.20767 19.7969 4.40689 19.6992 3.83072 19.123L2.46353 17.7559C1.87759 17.1797 1.7897 16.3789 2.20963 15.7051L3.14713 14.2109L3.04947 13.9668L1.33072 13.5664C0.559235 13.3809 0.0611877 12.7363 0.0611877 11.9355V10.0117C0.0611877 9.21094 0.549469 8.57617 1.33072 8.38086L3.02994 7.9707L3.13736 7.7168L2.19986 6.22266C1.77994 5.54883 1.86783 4.74805 2.45377 4.16211L3.82095 2.79492C4.38736 2.22852 5.18814 2.12109 5.87173 2.54102L7.37564 3.45898L7.64908 3.35156L8.04947 1.62305C8.22525 0.851562 8.86002 0.353516 9.68033 0.353516H11.653C12.4635 0.353516 13.0983 0.851562 13.2838 1.62305L13.6842 3.35156L13.9577 3.45898L15.4616 2.54102C16.1354 2.12109 16.9362 2.22852 17.5026 2.79492L18.8698 4.16211C19.4655 4.74805 19.5436 5.54883 19.1237 6.22266L18.196 7.7168L18.2936 7.9707L20.0026 8.38086C20.7741 8.57617 21.2721 9.21094 21.2721 10.0117V11.9355C21.2721 12.7363 20.7643 13.3809 20.0026 13.5664L18.2741 13.9668L18.1862 14.2109L19.1139 15.7051C19.5338 16.3789 19.446 17.1797 18.86 17.7559L17.4928 19.123C16.9264 19.6992 16.1256 19.7969 15.442 19.377L13.9381 18.4492L13.6842 18.5469L13.2838 20.2754C13.0983 21.0469 12.4635 21.5449 11.653 21.5449H9.68033ZM9.9147 19.7773H11.4186C11.5846 19.7773 11.6628 19.709 11.6823 19.5527L12.2682 17.1504C12.9128 17.0039 13.4694 16.7598 13.9479 16.457L16.0573 17.7559C16.1745 17.834 16.3014 17.834 16.4186 17.707L17.4538 16.6621C17.5612 16.5645 17.5612 16.4473 17.4831 16.3203L16.194 14.2109C16.4577 13.752 16.7213 13.166 16.8678 12.5508L19.2799 11.9746C19.4264 11.9453 19.5045 11.8672 19.5045 11.7012V10.2363C19.5045 10.0605 19.4362 9.99219 19.2799 9.95312L16.8776 9.38672C16.7311 8.73242 16.4381 8.12695 16.2038 7.70703L17.4928 5.60742C17.5807 5.4707 17.5807 5.35352 17.4635 5.24609L16.4186 4.2207C16.3014 4.10352 16.2038 4.09375 16.0573 4.17188L13.9577 5.45117C13.4792 5.17773 12.903 4.91406 12.2682 4.76758L11.6823 2.3457C11.6628 2.18945 11.5846 2.12109 11.4186 2.12109H9.9147C9.74869 2.12109 9.67056 2.19922 9.64127 2.3457L9.06509 4.74805C8.44986 4.9043 7.80533 5.17773 7.36588 5.44141L5.26627 4.16211C5.11978 4.08398 5.02213 4.10352 4.89517 4.21094L3.86002 5.23633C3.74283 5.35352 3.74283 5.4707 3.83072 5.60742L5.11978 7.70703C4.88541 8.12695 4.6022 8.73242 4.45572 9.38672L2.04361 9.95312C1.89713 9.99219 1.82877 10.0605 1.82877 10.2363V11.7012C1.82877 11.8672 1.89713 11.9453 2.04361 11.9746L4.45572 12.5508C4.6022 13.166 4.86588 13.752 5.13931 14.2109L3.84048 16.3203C3.75259 16.4473 3.76236 16.5645 3.86978 16.6719L4.90494 17.707C5.02213 17.834 5.14908 17.834 5.26627 17.7559L7.37564 16.457C7.85416 16.7598 8.44009 17.0039 9.06509 17.1504L9.64127 19.5527C9.67056 19.6992 9.74869 19.7773 9.9147 19.7773ZM10.6667 14.6504C8.61588 14.6504 6.95572 13 6.95572 10.9492C6.95572 8.89844 8.61588 7.24805 10.6667 7.24805C12.7077 7.24805 14.3678 8.89844 14.3678 10.9492C14.3678 13 12.7077 14.6504 10.6667 14.6504ZM10.6667 12.9707C11.7799 12.9707 12.6881 12.0723 12.6881 10.9492C12.6881 9.82617 11.7799 8.91797 10.6667 8.91797C9.54361 8.91797 8.63541 9.82617 8.63541 10.9492C8.63541 12.0723 9.54361 12.9707 10.6667 12.9707Z" fill="#11AF59"/>
</svg>
