<svg width="24" height="20" viewBox="0 0 24 20" fill="none" xmlns="http://www.w3.org/2000/svg">
<path d="M2.03906 19.1191C1.29688 19.1191 0.720703 18.5332 0.720703 17.8008V15.2422C0.398438 14.8613 0.222656 14.3633 0.222656 13.7383V12.0195C0.222656 10.3105 0.525391 9.34375 1.45312 8.17188L2.3125 7.07812C2.67383 5.32031 3.32812 3.47461 3.66016 2.75195C4.20703 1.60938 5.25195 0.90625 6.60938 0.740234C7.30273 0.652344 9.40234 0.59375 12 0.59375C14.5879 0.59375 16.6875 0.642578 17.3906 0.740234C18.7383 0.916016 19.7832 1.60938 20.3301 2.75195C20.6621 3.47461 21.3164 5.32031 21.6777 7.07812L22.5371 8.17188C23.4648 9.34375 23.7676 10.3105 23.7676 12.0195V13.7383C23.7676 14.3633 23.5918 14.8613 23.2695 15.2422V17.8008C23.2695 18.543 22.6934 19.1191 21.9512 19.1191H20.7793C20.0273 19.1191 19.4512 18.543 19.4512 17.8008V16.209C17.3125 16.3262 14.3828 16.4141 12 16.4141C9.60742 16.4141 6.67773 16.3262 4.53906 16.209V17.8008C4.53906 18.543 3.96289 19.1191 3.21094 19.1191H2.03906ZM12 14.8613C15.3398 14.8613 19.5098 14.7051 21.0918 14.5195C21.9219 14.4219 22.2344 13.9922 22.2344 13.25V11.9316C22.2344 10.6133 21.9902 9.98828 21.2969 9.08008L20.2422 7.70312C19.998 6.375 19.3828 4.35352 18.9629 3.49414C18.6309 2.80078 18.0254 2.40039 17.1465 2.29297C16.5312 2.21484 14.5781 2.11719 12 2.11719C9.41211 2.11719 7.49805 2.20508 6.83398 2.29297C5.97461 2.39062 5.34961 2.79102 5.02734 3.48438C4.61719 4.36328 3.98242 6.38477 3.74805 7.70312L2.69336 9.08008C2 9.98828 1.75586 10.6133 1.75586 11.9316V13.25C1.75586 13.9922 2.06836 14.4121 2.89844 14.5195C4.48047 14.7051 8.65039 14.8613 12 14.8613ZM5.06641 6.75586C5.29102 5.80859 5.70117 4.55859 5.97461 4.07031C6.24805 3.58203 6.56055 3.38672 7.12695 3.30859C7.79102 3.21094 9.38281 3.15234 12 3.15234C14.6074 3.15234 16.1992 3.21094 16.8633 3.30859C17.4297 3.38672 17.752 3.58203 18.0156 4.07031C18.2988 4.55859 18.709 5.80859 18.9238 6.75586C19.0117 7.14648 18.8457 7.32227 18.4258 7.30273C16.9805 7.21484 15.1738 7.12695 12 7.12695C8.81641 7.12695 7.00977 7.21484 5.56445 7.30273C5.14453 7.32227 4.97852 7.14648 5.06641 6.75586ZM4.92969 13.5918C4.00195 13.5918 3.29883 12.8887 3.29883 11.9609C3.29883 11.0332 4.00195 10.3301 4.92969 10.3301C5.85742 10.3301 6.56055 11.0332 6.56055 11.9609C6.56055 12.8887 5.85742 13.5918 4.92969 13.5918ZM19.0605 13.5918C18.1328 13.5918 17.4297 12.8887 17.4297 11.9609C17.4297 11.0332 18.1328 10.3301 19.0605 10.3301C19.9883 10.3301 20.6914 11.0332 20.6914 11.9609C20.6914 12.8887 19.9883 13.5918 19.0605 13.5918ZM9.36328 13.1914C8.66992 13.1914 8.18164 12.7031 8.18164 12.0098C8.18164 11.3164 8.66992 10.8281 9.36328 10.8281H14.627C15.3203 10.8281 15.8086 11.3164 15.8086 12.0098C15.8086 12.7031 15.3203 13.1914 14.627 13.1914H9.36328Z" fill="#11AF59"/>
</svg>
